<svg width="2159" height="559" viewBox="0 0 2159 559" fill="none" xmlns="http://www.w3.org/2000/svg">
<path d="M806.036 308.461C802.988 292.001 797.501 279.504 789.576 270.969C781.955 262.434 770.22 258.167 754.37 258.167C744.006 258.167 735.319 259.995 728.308 263.653C721.602 267.006 716.116 271.274 711.848 276.455C707.886 281.637 704.99 287.124 703.161 292.915C701.637 298.707 700.722 303.889 700.418 308.461H806.036ZM700.418 349.611C701.332 370.643 706.666 385.884 716.42 395.333C726.174 404.782 740.196 409.507 758.485 409.507C771.592 409.507 782.87 406.306 792.319 399.905C801.768 393.199 807.56 386.189 809.694 378.873H866.846C857.702 407.221 843.68 427.491 824.782 439.684C805.883 451.876 783.022 457.972 756.199 457.972C737.605 457.972 720.84 455.077 705.904 449.285C690.968 443.189 678.319 434.654 667.955 423.681C657.591 412.707 649.514 399.6 643.722 384.36C638.235 369.119 635.492 352.354 635.492 334.065C635.492 316.386 638.388 299.926 644.179 284.685C649.971 269.445 658.201 256.338 668.869 245.364C679.538 234.086 692.188 225.247 706.819 218.845C721.755 212.444 738.215 209.244 756.199 209.244C776.316 209.244 793.843 213.206 808.779 221.132C823.715 228.752 835.908 239.116 845.357 252.223C855.111 265.33 862.122 280.266 866.389 297.03C870.657 313.795 872.181 331.322 870.961 349.611H700.418ZM873.468 215.645H935.193V248.565H936.565C944.795 234.848 955.463 224.942 968.57 218.845C981.677 212.444 995.089 209.244 1008.81 209.244C1026.18 209.244 1040.35 211.682 1051.33 216.559C1062.61 221.132 1071.45 227.685 1077.85 236.22C1084.25 244.45 1088.67 254.661 1091.11 266.854C1093.85 278.741 1095.22 292.001 1095.22 306.632V452.029H1030.3V318.52C1030.3 299.012 1027.25 284.533 1021.15 275.084C1015.05 265.33 1004.23 260.453 988.688 260.453C971.009 260.453 958.206 265.787 950.281 276.455C942.356 286.819 938.393 304.041 938.393 328.121V452.029H873.468V215.645ZM1218.69 396.248C1227.83 396.248 1235.91 394.419 1242.92 390.761C1249.93 387.103 1255.72 382.226 1260.29 376.13C1264.87 370.033 1268.22 363.175 1270.35 355.555C1272.79 347.63 1274.01 339.4 1274.01 330.865C1274.01 321.111 1273.1 311.966 1271.27 303.431C1269.44 294.592 1266.39 286.819 1262.12 280.113C1257.86 273.407 1252.22 268.073 1245.21 264.11C1238.2 260.148 1229.36 258.167 1218.69 258.167C1209.54 258.167 1201.62 259.995 1194.91 263.653C1188.51 267.311 1183.02 272.34 1178.45 278.741C1174.18 284.838 1170.98 292.001 1168.85 300.231C1167.02 308.156 1166.11 316.538 1166.11 325.378C1166.11 333.913 1166.87 342.448 1168.39 350.983C1170.22 359.213 1173.12 366.68 1177.08 373.386C1181.35 380.092 1186.83 385.579 1193.54 389.846C1200.25 394.114 1208.63 396.248 1218.69 396.248ZM1335.74 436.94C1335.74 446.389 1334.36 457.21 1331.62 469.403C1329.18 481.596 1323.7 492.874 1315.16 503.237C1306.63 513.906 1294.28 522.898 1278.13 530.213C1261.97 537.529 1240.33 541.187 1213.2 541.187C1201.62 541.187 1189.73 539.663 1177.54 536.615C1165.65 533.871 1154.68 529.451 1144.62 523.355C1134.86 517.259 1126.63 509.334 1119.93 499.58C1113.53 490.13 1109.87 478.7 1108.95 465.288H1173.42C1176.47 477.481 1182.41 485.863 1191.25 490.435C1200.09 495.312 1210.3 497.751 1221.89 497.751C1240.18 497.751 1253.44 492.264 1261.67 481.291C1270.2 470.317 1274.32 456.448 1274.01 439.684V408.592H1273.1C1266.09 421.09 1256.03 430.387 1242.92 436.483C1230.12 442.274 1216.55 445.17 1202.23 445.17C1184.55 445.17 1169.31 442.122 1156.51 436.026C1143.7 429.625 1133.19 421.09 1124.96 410.421C1116.73 399.448 1110.63 386.798 1106.67 372.472C1103.01 357.841 1101.18 342.448 1101.18 326.293C1101.18 311.052 1103.32 296.421 1107.58 282.399C1112.15 268.073 1118.71 255.576 1127.24 244.907C1135.78 233.934 1146.29 225.247 1158.79 218.845C1171.59 212.444 1186.22 209.244 1202.68 209.244C1218.23 209.244 1231.79 212.14 1243.38 217.931C1255.27 223.722 1265.17 233.477 1273.1 247.193H1274.01V215.645H1335.74V436.94ZM1349.27 288.343C1350.18 273.102 1353.99 260.453 1360.7 250.394C1367.4 240.335 1375.94 232.257 1386.3 226.161C1396.66 220.065 1408.25 215.797 1421.05 213.359C1434.16 210.615 1447.26 209.244 1460.37 209.244C1472.26 209.244 1484.3 210.158 1496.49 211.987C1508.68 213.511 1519.81 216.712 1529.87 221.589C1539.93 226.466 1548.16 233.324 1554.56 242.164C1560.96 250.699 1564.16 262.129 1564.16 276.455V399.448C1564.16 410.117 1564.77 420.328 1565.99 430.082C1567.21 439.836 1569.34 447.152 1572.39 452.029H1506.55C1505.33 448.371 1504.26 444.713 1503.35 441.055C1502.74 437.093 1502.28 433.13 1501.98 429.167C1491.61 439.836 1479.42 447.304 1465.4 451.571C1451.38 455.839 1437.05 457.972 1422.42 457.972C1411.14 457.972 1400.63 456.601 1390.87 453.857C1381.12 451.114 1372.58 446.847 1365.27 441.055C1357.95 435.264 1352.16 427.948 1347.89 419.109C1343.93 410.269 1341.95 399.753 1341.95 387.56C1341.95 374.148 1344.24 363.175 1348.81 354.64C1353.69 345.801 1359.78 338.79 1367.1 333.608C1374.72 328.426 1383.25 324.616 1392.7 322.178C1402.46 319.434 1412.21 317.301 1421.96 315.776C1431.72 314.252 1441.32 313.033 1450.77 312.119C1460.22 311.204 1468.6 309.833 1475.92 308.004C1483.23 306.175 1489.02 303.584 1493.29 300.231C1497.56 296.573 1499.54 291.391 1499.23 284.685C1499.23 277.675 1498.02 272.188 1495.58 268.225C1493.44 263.958 1490.4 260.757 1486.43 258.624C1482.77 256.185 1478.36 254.661 1473.17 254.052C1468.3 253.137 1462.96 252.68 1457.17 252.68C1444.37 252.68 1434.31 255.423 1426.99 260.91C1419.68 266.397 1415.41 275.541 1414.19 288.343H1349.27ZM1499.23 336.351C1496.49 338.79 1492.99 340.771 1488.72 342.295C1484.76 343.515 1480.34 344.581 1475.46 345.496C1470.89 346.41 1466.01 347.172 1460.83 347.782C1455.65 348.392 1450.46 349.154 1445.28 350.068C1440.41 350.983 1435.53 352.202 1430.65 353.726C1426.08 355.25 1421.96 357.384 1418.31 360.127C1414.95 362.565 1412.21 365.766 1410.08 369.729C1407.94 373.691 1406.88 378.721 1406.88 384.817C1406.88 390.608 1407.94 395.485 1410.08 399.448C1412.21 403.411 1415.11 406.611 1418.76 409.05C1422.42 411.183 1426.69 412.707 1431.57 413.622C1436.44 414.536 1441.47 414.994 1446.65 414.994C1459.46 414.994 1469.36 412.86 1476.37 408.592C1483.38 404.325 1488.57 399.296 1491.92 393.504C1495.27 387.408 1497.25 381.312 1497.86 375.215C1498.78 369.119 1499.23 364.242 1499.23 360.584V336.351ZM1688.75 396.248C1697.89 396.248 1705.97 394.419 1712.98 390.761C1719.99 387.103 1725.78 382.226 1730.35 376.13C1734.92 370.033 1738.28 363.175 1740.41 355.555C1742.85 347.63 1744.07 339.4 1744.07 330.865C1744.07 321.111 1743.15 311.966 1741.33 303.431C1739.5 294.592 1736.45 286.819 1732.18 280.113C1727.91 273.407 1722.27 268.073 1715.26 264.11C1708.25 260.148 1699.41 258.167 1688.75 258.167C1679.6 258.167 1671.68 259.995 1664.97 263.653C1658.57 267.311 1653.08 272.34 1648.51 278.741C1644.24 284.838 1641.04 292.001 1638.91 300.231C1637.08 308.156 1636.16 316.538 1636.16 325.378C1636.16 333.913 1636.93 342.448 1638.45 350.983C1640.28 359.213 1643.18 366.68 1647.14 373.386C1651.41 380.092 1656.89 385.579 1663.6 389.846C1670.3 394.114 1678.69 396.248 1688.75 396.248ZM1805.79 436.94C1805.79 446.389 1804.42 457.21 1801.68 469.403C1799.24 481.596 1793.75 492.874 1785.22 503.237C1776.68 513.906 1764.34 522.898 1748.18 530.213C1732.03 537.529 1710.39 541.187 1683.26 541.187C1671.68 541.187 1659.79 539.663 1647.6 536.615C1635.71 533.871 1624.73 529.451 1614.68 523.355C1604.92 517.259 1596.69 509.334 1589.99 499.58C1583.58 490.13 1579.93 478.7 1579.01 465.288H1643.48C1646.53 477.481 1652.47 485.863 1661.31 490.435C1670.15 495.312 1680.36 497.751 1691.95 497.751C1710.23 497.751 1723.49 492.264 1731.72 481.291C1740.26 470.317 1744.37 456.448 1744.07 439.684V408.592H1743.15C1736.14 421.09 1726.08 430.387 1712.98 436.483C1700.18 442.274 1686.61 445.17 1672.29 445.17C1654.61 445.17 1639.37 442.122 1626.56 436.026C1613.76 429.625 1603.24 421.09 1595.01 410.421C1586.78 399.448 1580.69 386.798 1576.73 372.472C1573.07 357.841 1571.24 342.448 1571.24 326.293C1571.24 311.052 1573.37 296.421 1577.64 282.399C1582.21 268.073 1588.77 255.576 1597.3 244.907C1605.84 233.934 1616.35 225.247 1628.85 218.845C1641.65 212.444 1656.28 209.244 1672.74 209.244C1688.29 209.244 1701.85 212.14 1713.44 217.931C1725.32 223.722 1735.23 233.477 1743.15 247.193H1744.07V215.645H1805.79V436.94ZM1888.82 179.067H1823.9V125.572H1888.82V179.067ZM1823.9 215.645H1888.82V452.029H1823.9V215.645ZM1961.55 334.065C1961.55 343.515 1962.47 352.811 1964.3 361.956C1966.13 370.795 1969.18 378.873 1973.44 386.189C1978.01 393.199 1983.96 398.838 1991.27 403.106C1998.59 407.373 2007.73 409.507 2018.71 409.507C2029.68 409.507 2038.83 407.373 2046.14 403.106C2053.76 398.838 2059.7 393.199 2063.97 386.189C2068.54 378.873 2071.75 370.795 2073.57 361.956C2075.4 352.811 2076.32 343.515 2076.32 334.065C2076.32 324.616 2075.4 315.319 2073.57 306.175C2071.75 297.03 2068.54 288.953 2063.97 281.942C2059.7 274.931 2053.76 269.292 2046.14 265.025C2038.83 260.453 2029.68 258.167 2018.71 258.167C2007.73 258.167 1998.59 260.453 1991.27 265.025C1983.96 269.292 1978.01 274.931 1973.44 281.942C1969.18 288.953 1966.13 297.03 1964.3 306.175C1962.47 315.319 1961.55 324.616 1961.55 334.065ZM1896.63 334.065C1896.63 315.167 1899.52 298.097 1905.32 282.856C1911.11 267.311 1919.34 254.204 1930.01 243.535C1940.67 232.562 1953.48 224.18 1968.41 218.388C1983.35 212.292 2000.11 209.244 2018.71 209.244C2037.3 209.244 2054.07 212.292 2069 218.388C2084.24 224.18 2097.2 232.562 2107.87 243.535C2118.53 254.204 2126.76 267.311 2132.56 282.856C2138.35 298.097 2141.24 315.167 2141.24 334.065C2141.24 352.964 2138.35 370.033 2132.56 385.274C2126.76 400.515 2118.53 413.622 2107.87 424.595C2097.2 435.264 2084.24 443.494 2069 449.285C2054.07 455.077 2037.3 457.972 2018.71 457.972C2000.11 457.972 1983.35 455.077 1968.41 449.285C1953.48 443.494 1940.67 435.264 1930.01 424.595C1919.34 413.622 1911.11 400.515 1905.32 385.274C1899.52 370.033 1896.63 352.964 1896.63 334.065Z" fill="#33862C"/>
<path fill-rule="evenodd" clip-rule="evenodd" d="M129.249 99.0032C129.249 87.9575 120.295 79.0032 109.249 79.0032H26.4025C15.3568 79.0032 6.40247 87.9575 6.40247 99.0032V525.445C6.40247 536.491 15.3568 545.445 26.4025 545.445H46.3801L129.249 463.614V99.0032Z" fill="#162F14"/>
<rect x="203.414" y="106.302" width="122.847" height="336.269" rx="20" fill="#162F14"/>
<rect x="400.426" y="65.3535" width="122.847" height="227.585" rx="20" fill="#162F14"/>
<path d="M524.171 269.669C524.171 269.362 524.171 269.055 524.171 268.646C524.171 268.441 524.171 268.134 524.068 267.93C524.068 267.725 524.068 267.52 524.068 267.418C524.068 267.111 523.966 266.907 523.966 266.6C523.966 266.498 523.966 266.293 523.864 266.191C523.864 265.884 523.761 265.577 523.761 265.27C523.761 265.168 523.761 265.065 523.659 264.861C523.557 264.554 523.557 264.247 523.454 263.94C523.454 263.838 523.352 263.736 523.352 263.531C523.25 263.224 523.25 263.02 523.148 262.713C523.148 262.61 523.045 262.406 523.045 262.304C522.943 261.997 522.841 261.792 522.841 261.485C522.738 261.281 522.738 261.178 522.636 260.974C522.534 260.769 522.432 260.565 522.329 260.258C522.227 260.053 522.227 259.951 522.125 259.746C522.022 259.542 521.92 259.337 521.818 259.133C521.716 258.928 521.613 258.723 521.511 258.519C521.409 258.314 521.306 258.212 521.306 258.007C521.204 257.803 521.102 257.598 520.999 257.394C520.897 257.291 520.795 257.087 520.795 256.984C520.693 256.78 520.488 256.575 520.386 256.268C520.283 256.166 520.181 255.962 520.181 255.859C520.079 255.655 519.874 255.45 519.772 255.143C519.67 255.041 519.567 254.836 519.465 254.734C519.363 254.529 519.158 254.325 518.954 254.12C518.851 254.018 518.749 253.813 518.647 253.711C518.545 253.507 518.34 253.302 518.238 253.097C518.135 252.893 517.931 252.688 517.726 252.586C517.624 252.484 517.522 252.279 517.317 252.177C516.703 251.563 516.09 250.949 515.476 250.335C515.373 250.233 515.169 250.131 515.067 249.926C514.862 249.824 514.76 249.619 514.555 249.517C514.351 249.313 514.146 249.21 513.941 249.006C513.839 248.903 513.635 248.801 513.532 248.699C513.328 248.494 513.123 248.392 512.816 248.187C512.714 248.085 512.612 247.983 512.407 247.983C512.202 247.778 511.896 247.676 511.691 247.574C511.589 247.471 511.486 247.369 511.282 247.369C511.077 247.267 510.77 247.062 510.566 246.96C510.463 246.858 510.259 246.755 510.157 246.755C509.952 246.653 509.747 246.551 509.441 246.448C509.236 246.346 509.134 246.244 508.929 246.244C508.725 246.142 508.52 246.039 508.315 245.937C508.111 245.835 507.906 245.732 507.702 245.732C507.497 245.63 507.292 245.63 507.19 245.528C506.986 245.425 506.781 245.323 506.576 245.323C506.372 245.221 506.27 245.221 506.065 245.119C505.86 245.016 505.553 244.914 505.349 244.914C505.247 244.914 505.042 244.812 504.94 244.812C504.633 244.709 504.428 244.709 504.121 244.607C504.019 244.607 503.815 244.505 503.712 244.505C503.405 244.403 503.201 244.403 502.894 244.3C502.792 244.3 502.587 244.3 502.485 244.198C502.178 244.198 501.973 244.096 501.666 244.096C501.462 244.096 501.36 244.096 501.155 243.993C500.848 243.993 500.643 243.891 500.337 243.891C500.132 243.891 499.927 243.891 499.723 243.891C499.518 243.891 499.314 243.891 499.109 243.891C498.7 243.891 498.291 243.891 497.882 243.891H497.779H288.491C274.068 243.891 262.304 255.655 262.304 270.078C262.304 284.501 274.068 296.264 288.491 296.264H434.768L288.491 442.541L202.259 356.31C192.03 346.08 175.459 346.08 165.23 356.31L8.10973 513.327C-2.11942 523.556 -2.11942 540.127 8.10973 550.357C18.3389 560.586 34.9101 560.586 45.1393 550.357L183.744 411.752L269.976 497.983C274.886 502.893 281.637 505.655 288.491 505.655C295.344 505.655 302.096 502.893 307.006 497.983L471.797 333.192V479.469C471.797 493.892 483.561 505.655 497.984 505.655C512.407 505.655 524.171 493.892 524.171 479.469V269.975C524.171 269.873 524.171 269.771 524.171 269.669Z" fill="#33862C"/>
</svg>
