<svg width="2159" height="559" viewBox="0 0 2159 559" fill="none" xmlns="http://www.w3.org/2000/svg">
<path d="M805.598 308.58C802.55 292.12 797.063 279.623 789.138 271.088C781.518 262.553 769.782 258.286 753.932 258.286C743.568 258.286 734.881 260.115 727.87 263.773C721.164 267.126 715.678 271.393 711.41 276.575C707.448 281.757 704.552 287.243 702.723 293.035C701.199 298.826 700.285 304.008 699.98 308.58H805.598ZM699.98 349.73C700.894 370.762 706.228 386.003 715.982 395.452C725.737 404.902 739.758 409.626 758.047 409.626C771.154 409.626 782.432 406.426 791.881 400.025C801.331 393.319 807.122 386.308 809.256 378.992H866.408C857.264 407.34 843.243 427.61 824.344 439.803C805.446 451.996 782.584 458.092 755.761 458.092C737.167 458.092 720.402 455.196 705.466 449.405C690.53 443.308 677.881 434.774 667.517 423.8C657.153 412.827 649.076 399.72 643.284 384.479C637.798 369.238 635.054 352.474 635.054 334.185C635.054 316.505 637.95 300.045 643.741 284.805C649.533 269.564 657.763 256.457 668.431 245.484C679.1 234.206 691.75 225.366 706.381 218.965C721.317 212.564 737.777 209.363 755.761 209.363C775.879 209.363 793.405 213.326 808.341 221.251C823.277 228.871 835.47 239.235 844.919 252.342C854.673 265.449 861.684 280.385 865.951 297.15C870.219 313.915 871.743 331.441 870.523 349.73H699.98ZM873.03 215.764H934.755V248.684H936.127C944.357 234.968 955.025 225.061 968.132 218.965C981.239 212.564 994.651 209.363 1008.37 209.363C1025.74 209.363 1039.92 211.802 1050.89 216.679C1062.17 221.251 1071.01 227.804 1077.41 236.339C1083.81 244.569 1088.23 254.781 1090.67 266.973C1093.41 278.861 1094.78 292.12 1094.78 306.751V452.148H1029.86V318.639C1029.86 299.131 1026.81 284.652 1020.71 275.203C1014.62 265.449 1003.8 260.572 988.25 260.572C970.571 260.572 957.769 265.906 949.843 276.575C941.918 286.938 937.956 304.16 937.956 328.241V452.148H873.03V215.764ZM1218.25 396.367C1227.39 396.367 1235.47 394.538 1242.48 390.88C1249.49 387.222 1255.28 382.345 1259.86 376.249C1264.43 370.153 1267.78 363.295 1269.92 355.674C1272.35 347.749 1273.57 339.519 1273.57 330.984C1273.57 321.23 1272.66 312.086 1270.83 303.551C1269 294.711 1265.95 286.938 1261.69 280.233C1257.42 273.527 1251.78 268.192 1244.77 264.23C1237.76 260.267 1228.92 258.286 1218.25 258.286C1209.11 258.286 1201.18 260.115 1194.47 263.773C1188.07 267.43 1182.59 272.46 1178.01 278.861C1173.75 284.957 1170.55 292.12 1168.41 300.35C1166.58 308.275 1165.67 316.658 1165.67 325.498C1165.67 334.032 1166.43 342.567 1167.96 351.102C1169.78 359.332 1172.68 366.8 1176.64 373.506C1180.91 380.212 1186.4 385.698 1193.1 389.966C1199.81 394.233 1208.19 396.367 1218.25 396.367ZM1335.3 437.06C1335.3 446.509 1333.93 457.33 1331.18 469.522C1328.74 481.715 1323.26 492.993 1314.72 503.357C1306.19 514.025 1293.84 523.017 1277.69 530.333C1261.53 537.648 1239.89 541.306 1212.76 541.306C1201.18 541.306 1189.29 539.782 1177.1 536.734C1165.21 533.991 1154.24 529.571 1144.18 523.475C1134.43 517.378 1126.2 509.453 1119.49 499.699C1113.09 490.25 1109.43 478.819 1108.52 465.407H1172.98C1176.03 477.6 1181.98 485.982 1190.82 490.555C1199.66 495.432 1209.87 497.87 1221.45 497.87C1239.74 497.87 1253 492.383 1261.23 481.41C1269.76 470.437 1273.88 456.568 1273.57 439.803V408.712H1272.66C1265.65 421.209 1255.59 430.506 1242.48 436.602C1229.68 442.394 1216.12 445.29 1201.79 445.29C1184.11 445.29 1168.87 442.241 1156.07 436.145C1143.27 429.744 1132.75 421.209 1124.52 410.541C1116.29 399.567 1110.19 386.918 1106.23 372.591C1102.57 357.96 1100.74 342.567 1100.74 326.412C1100.74 311.171 1102.88 296.54 1107.14 282.519C1111.72 268.192 1118.27 255.695 1126.81 245.026C1135.34 234.053 1145.86 225.366 1158.35 218.965C1171.16 212.564 1185.79 209.363 1202.25 209.363C1217.79 209.363 1231.36 212.259 1242.94 218.05C1254.83 223.842 1264.73 233.596 1272.66 247.313H1273.57V215.764H1335.3V437.06ZM1348.83 288.463C1349.74 273.222 1353.55 260.572 1360.26 250.513C1366.96 240.454 1375.5 232.377 1385.86 226.28C1396.23 220.184 1407.81 215.917 1420.61 213.478C1433.72 210.735 1446.83 209.363 1459.93 209.363C1471.82 209.363 1483.86 210.278 1496.05 212.106C1508.25 213.631 1519.37 216.831 1529.43 221.708C1539.49 226.585 1547.72 233.444 1554.12 242.283C1560.52 250.818 1563.72 262.248 1563.72 276.575V399.567C1563.72 410.236 1564.33 420.447 1565.55 430.201C1566.77 439.955 1568.9 447.271 1571.95 452.148H1506.11C1504.89 448.49 1503.83 444.832 1502.91 441.175C1502.3 437.212 1501.85 433.249 1501.54 429.287C1491.18 439.955 1478.98 447.423 1464.96 451.691C1450.94 455.958 1436.61 458.092 1421.98 458.092C1410.71 458.092 1400.19 456.72 1390.44 453.977C1380.68 451.234 1372.15 446.966 1364.83 441.175C1357.52 435.383 1351.72 428.068 1347.46 419.228C1343.49 410.388 1341.51 399.872 1341.51 387.68C1341.51 374.268 1343.8 363.295 1348.37 354.76C1353.25 345.92 1359.34 338.909 1366.66 333.728C1374.28 328.546 1382.82 324.735 1392.26 322.297C1402.02 319.554 1411.77 317.42 1421.53 315.896C1431.28 314.372 1440.88 313.153 1450.33 312.238C1459.78 311.324 1468.16 309.952 1475.48 308.123C1482.79 306.294 1488.59 303.703 1492.85 300.35C1497.12 296.693 1499.1 291.511 1498.8 284.805C1498.8 277.794 1497.58 272.307 1495.14 268.345C1493.01 264.077 1489.96 260.877 1485.99 258.743C1482.34 256.305 1477.92 254.781 1472.74 254.171C1467.86 253.256 1462.52 252.799 1456.73 252.799C1443.93 252.799 1433.87 255.543 1426.56 261.029C1419.24 266.516 1414.97 275.66 1413.75 288.463H1348.83ZM1498.8 336.471C1496.05 338.909 1492.55 340.891 1488.28 342.415C1484.32 343.634 1479.9 344.701 1475.02 345.615C1470.45 346.53 1465.57 347.292 1460.39 347.901C1455.21 348.511 1450.03 349.273 1444.84 350.187C1439.97 351.102 1435.09 352.321 1430.21 353.845C1425.64 355.369 1421.53 357.503 1417.87 360.246C1414.52 362.685 1411.77 365.885 1409.64 369.848C1407.51 373.811 1406.44 378.84 1406.44 384.936C1406.44 390.728 1407.51 395.605 1409.64 399.567C1411.77 403.53 1414.67 406.731 1418.33 409.169C1421.98 411.303 1426.25 412.827 1431.13 413.741C1436.01 414.656 1441.03 415.113 1446.22 415.113C1459.02 415.113 1468.93 412.979 1475.94 408.712C1482.95 404.444 1488.13 399.415 1491.48 393.624C1494.83 387.527 1496.82 381.431 1497.43 375.335C1498.34 369.238 1498.8 364.361 1498.8 360.704V336.471ZM1688.31 396.367C1697.45 396.367 1705.53 394.538 1712.54 390.88C1719.55 387.222 1725.34 382.345 1729.91 376.249C1734.49 370.153 1737.84 363.295 1739.97 355.674C1742.41 347.749 1743.63 339.519 1743.63 330.984C1743.63 321.23 1742.72 312.086 1740.89 303.551C1739.06 294.711 1736.01 286.938 1731.74 280.233C1727.48 273.527 1721.84 268.192 1714.83 264.23C1707.82 260.267 1698.98 258.286 1688.31 258.286C1679.16 258.286 1671.24 260.115 1664.53 263.773C1658.13 267.43 1652.64 272.46 1648.07 278.861C1643.8 284.957 1640.6 292.12 1638.47 300.35C1636.64 308.275 1635.73 316.658 1635.73 325.498C1635.73 334.032 1636.49 342.567 1638.01 351.102C1639.84 359.332 1642.74 366.8 1646.7 373.506C1650.97 380.212 1656.45 385.698 1663.16 389.966C1669.87 394.233 1678.25 396.367 1688.31 396.367ZM1805.36 437.06C1805.36 446.509 1803.98 457.33 1801.24 469.522C1798.8 481.715 1793.32 492.993 1784.78 503.357C1776.25 514.025 1763.9 523.017 1747.75 530.333C1731.59 537.648 1709.95 541.306 1682.82 541.306C1671.24 541.306 1659.35 539.782 1647.16 536.734C1635.27 533.991 1624.3 529.571 1614.24 523.475C1604.48 517.378 1596.25 509.453 1589.55 499.699C1583.15 490.25 1579.49 478.819 1578.57 465.407H1643.04C1646.09 477.6 1652.03 485.982 1660.87 490.555C1669.71 495.432 1679.92 497.87 1691.51 497.87C1709.8 497.87 1723.06 492.383 1731.29 481.41C1739.82 470.437 1743.94 456.568 1743.63 439.803V408.712H1742.72C1735.71 421.209 1725.65 430.506 1712.54 436.602C1699.74 442.394 1686.17 445.29 1671.85 445.29C1654.17 445.29 1638.93 442.241 1626.13 436.145C1613.32 429.744 1602.81 421.209 1594.58 410.541C1586.35 399.567 1580.25 386.918 1576.29 372.591C1572.63 357.96 1570.8 342.567 1570.8 326.412C1570.8 311.171 1572.94 296.54 1577.2 282.519C1581.77 268.192 1588.33 255.695 1596.86 245.026C1605.4 234.053 1615.91 225.366 1628.41 218.965C1641.21 212.564 1655.84 209.363 1672.3 209.363C1687.85 209.363 1701.41 212.259 1713 218.05C1724.89 223.842 1734.79 233.596 1742.72 247.313H1743.63V215.764H1805.36V437.06ZM1888.38 179.187H1823.46V125.692H1888.38V179.187ZM1823.46 215.764H1888.38V452.148H1823.46V215.764ZM1961.12 334.185C1961.12 343.634 1962.03 352.931 1963.86 362.075C1965.69 370.915 1968.74 378.992 1973 386.308C1977.58 393.319 1983.52 398.958 1990.84 403.225C1998.15 407.493 2007.3 409.626 2018.27 409.626C2029.24 409.626 2038.39 407.493 2045.7 403.225C2053.32 398.958 2059.27 393.319 2063.53 386.308C2068.11 378.992 2071.31 370.915 2073.14 362.075C2074.97 352.931 2075.88 343.634 2075.88 334.185C2075.88 324.735 2074.97 315.439 2073.14 306.294C2071.31 297.15 2068.11 289.072 2063.53 282.061C2059.27 275.051 2053.32 269.412 2045.7 265.144C2038.39 260.572 2029.24 258.286 2018.27 258.286C2007.3 258.286 1998.15 260.572 1990.84 265.144C1983.52 269.412 1977.58 275.051 1973 282.061C1968.74 289.072 1965.69 297.15 1963.86 306.294C1962.03 315.439 1961.12 324.735 1961.12 334.185ZM1896.19 334.185C1896.19 315.286 1899.09 298.217 1904.88 282.976C1910.67 267.43 1918.9 254.323 1929.57 243.655C1940.24 232.681 1953.04 224.299 1967.98 218.508C1982.91 212.411 1999.68 209.363 2018.27 209.363C2036.86 209.363 2053.63 212.411 2068.56 218.508C2083.8 224.299 2096.76 232.681 2107.43 243.655C2118.1 254.323 2126.33 267.43 2132.12 282.976C2137.91 298.217 2140.8 315.286 2140.8 334.185C2140.8 353.083 2137.91 370.153 2132.12 385.394C2126.33 400.634 2118.1 413.741 2107.43 424.715C2096.76 435.383 2083.8 443.613 2068.56 449.405C2053.63 455.196 2036.86 458.092 2018.27 458.092C1999.68 458.092 1982.91 455.196 1967.98 449.405C1953.04 443.613 1940.24 435.383 1929.57 424.715C1918.9 413.741 1910.67 400.634 1904.88 385.394C1899.09 370.153 1896.19 353.083 1896.19 334.185Z" fill="#162F14"/>
<path fill-rule="evenodd" clip-rule="evenodd" d="M128.812 99.1226C128.812 88.0769 119.857 79.1226 108.812 79.1226H25.9646C14.9189 79.1226 5.96457 88.0769 5.96457 99.1226V525.564C5.96457 536.61 14.9189 545.564 25.9646 545.564H45.9422L128.812 463.733V99.1226Z" fill="#162F14"/>
<rect x="202.976" y="106.422" width="122.847" height="336.269" rx="20" fill="#162F14"/>
<rect x="399.988" y="65.4729" width="122.847" height="227.585" rx="20" fill="#162F14"/>
<path d="M523.733 269.788C523.733 269.481 523.733 269.174 523.733 268.765C523.733 268.56 523.733 268.254 523.63 268.049C523.63 267.844 523.63 267.64 523.63 267.538C523.63 267.231 523.528 267.026 523.528 266.719C523.528 266.617 523.528 266.412 523.426 266.31C523.426 266.003 523.324 265.696 523.324 265.389C523.324 265.287 523.323 265.185 523.221 264.98C523.119 264.673 523.119 264.367 523.017 264.06C523.017 263.957 522.914 263.855 522.914 263.65C522.812 263.344 522.812 263.139 522.71 262.832C522.71 262.73 522.607 262.525 522.607 262.423C522.505 262.116 522.403 261.912 522.403 261.605C522.301 261.4 522.301 261.298 522.198 261.093C522.096 260.889 521.994 260.684 521.891 260.377C521.789 260.173 521.789 260.07 521.687 259.866C521.585 259.661 521.482 259.457 521.38 259.252C521.278 259.047 521.175 258.843 521.073 258.638C520.971 258.434 520.869 258.331 520.869 258.127C520.766 257.922 520.664 257.718 520.562 257.513C520.459 257.411 520.357 257.206 520.357 257.104C520.255 256.899 520.05 256.695 519.948 256.388C519.846 256.285 519.743 256.081 519.743 255.979C519.641 255.774 519.436 255.569 519.334 255.263C519.232 255.16 519.13 254.956 519.027 254.853C518.925 254.649 518.72 254.444 518.516 254.24C518.413 254.137 518.311 253.933 518.209 253.83C518.107 253.626 517.902 253.421 517.8 253.217C517.697 253.012 517.493 252.808 517.288 252.705C517.186 252.603 517.084 252.398 516.879 252.296C516.265 251.682 515.652 251.069 515.038 250.455C514.936 250.353 514.731 250.25 514.629 250.046C514.424 249.943 514.322 249.739 514.117 249.637C513.913 249.432 513.708 249.33 513.504 249.125C513.401 249.023 513.197 248.92 513.094 248.818C512.89 248.614 512.685 248.511 512.378 248.307C512.276 248.204 512.174 248.102 511.969 248.102C511.765 247.898 511.458 247.795 511.253 247.693C511.151 247.591 511.049 247.488 510.844 247.488C510.639 247.386 510.332 247.182 510.128 247.079C510.026 246.977 509.821 246.875 509.719 246.875C509.514 246.772 509.31 246.67 509.003 246.568C508.798 246.465 508.696 246.363 508.491 246.363C508.287 246.261 508.082 246.159 507.877 246.056C507.673 245.954 507.468 245.852 507.264 245.852C507.059 245.749 506.855 245.749 506.752 245.647C506.548 245.545 506.343 245.443 506.139 245.443C505.934 245.34 505.832 245.34 505.627 245.238C505.422 245.136 505.116 245.033 504.911 245.033C504.809 245.033 504.604 244.931 504.502 244.931C504.195 244.829 503.99 244.829 503.684 244.727C503.581 244.727 503.377 244.624 503.274 244.624C502.967 244.522 502.763 244.522 502.456 244.42C502.354 244.42 502.149 244.42 502.047 244.317C501.74 244.317 501.535 244.215 501.229 244.215C501.024 244.215 500.922 244.215 500.717 244.113C500.41 244.113 500.206 244.01 499.899 244.01C499.694 244.01 499.49 244.01 499.285 244.01C499.08 244.01 498.876 244.01 498.671 244.01C498.262 244.01 497.853 244.01 497.444 244.01H497.341H288.053C273.63 244.01 261.866 255.774 261.866 270.197C261.866 284.62 273.63 296.384 288.053 296.384H434.33L288.053 442.661L201.821 356.429C191.592 346.2 175.021 346.2 164.792 356.429L7.67187 513.446C-2.55729 523.676 -2.55729 540.247 7.67187 550.476C17.901 560.705 34.4722 560.705 44.7014 550.476L183.306 411.871L269.538 498.103C274.448 503.013 281.199 505.775 288.053 505.775C294.907 505.775 301.658 503.013 306.568 498.103L471.359 333.311V479.588C471.359 494.011 483.123 505.775 497.546 505.775C511.969 505.775 523.733 494.011 523.733 479.588V270.095C523.733 269.993 523.733 269.89 523.733 269.788Z" fill="#33862C"/>
</svg>
